<svg xmlns="http://www.w3.org/2000/svg" width="1600" height="1200" fill="none" viewBox="0 0 1600 1200">
  <g clip-path="url(#clip0_2_2)">
    <mask id="a" width="1600" height="1200" x="0" y="0" maskUnits="userSpaceOnUse" style="mask-type:alpha">
      <path fill="#fff" d="M1600 0H0v1200h1600V0z"/>
    </mask>
    <g mask="url(#a)">
      <path fill="#A9A9A9" d="M1600 0H0v1200h1600V0z"/>
      <path fill="#353535" fill-rule="evenodd" d="M1600 0v1200h-590.06L356 396.07 865.25 0H1600z" clip-rule="evenodd"/>
      <path fill="#BFCBBA" d="M450 663c137.519 0 249-111.481 249-249S587.519 165 450 165 201 276.481 201 414s111.481 249 249 249z"/>
      <path fill="#DC4618" d="M1461.38 119.766L952.395 414.643l40.181 69.356 508.984-294.877-40.18-69.356z"/>
      <path fill="#DC4618" fill-rule="evenodd" d="M873.219 896.332L667.313 642.858l-49.626 32.958 206.032 259.969 49.5-39.453z" clip-rule="evenodd"/>
      <path fill="#EAE8E4" fill-rule="evenodd" d="M171.224 983.293l243.19-177.67-22.339-32.148L145.57 932.898l25.654 50.395z" clip-rule="evenodd"/>
      <path fill="#60BEBF" d="M702.681 964.043L611.925 829 591 843.062l90.756 135.044 20.925-14.063z"/>
      <path fill="#3A8EAA" fill-rule="evenodd" d="M826.604 692.001l-94.592-115.188L691.734 600l92.176 125.902 42.694-33.901z" clip-rule="evenodd"/>
      <path fill="#2A3E4C" fill-rule="evenodd" d="M1492.54-172.314L511.509 513.907l48.366 63.202L1576.96-67.469l-84.42-104.845z" clip-rule="evenodd"/>
      <path fill="#E5AB17" fill-rule="evenodd" d="M573.375 589.383L912.85 403.734l24.45 44.033-335.425 183.827-28.5-42.211z" clip-rule="evenodd"/>
      <path fill="#EAE8E4" d="M405.161 863L114 1107.67l32.403 38.56 291.161-244.671L405.161 863z"/>
      <path fill="#E5AB17" fill-rule="evenodd" d="M315.848 909.492l121.387-96.942 23.073 25.393-121.387 96.941-23.073-25.392z" clip-rule="evenodd"/>
      <path fill="#28203D" d="M1116.34 452.616l336.7-184.852 12.94 25.309-336.7 184.852-12.94-25.309z"/>
      <path fill="#BFCBBA" fill-rule="evenodd" d="M1145.03 241.089l325.28-196.11 14.67 24.345-325.28 196.11-14.67-24.345z" clip-rule="evenodd"/>
      <path fill="#849C9B" d="M1401.38 358.066l-338.23 172.979 3.27 6.397 338.24-172.979-3.28-6.397z"/>
      <path fill="#28203D" d="M828.445 964.33L238.871 222l-16.747 13.301 589.574 742.33 16.747-13.301z"/>
      <path fill="#849C9B" fill-rule="evenodd" d="M624.656 773.079L228.268 292.368l-62.061 40.398 390.066 491.648 68.383-51.335z" clip-rule="evenodd"/>
      <path fill="#849C9B" d="M1001.39 760.097c21.08-5.057 34.1-26.157 29.07-47.127-5.03-20.97-26.2-33.87-47.285-28.813-21.083 5.057-34.097 26.157-29.067 47.127 5.03 20.97 26.199 33.87 47.282 28.813z"/>
      <path fill="#EAE8E4" d="M187.553 753.249c37.969-9.108 61.406-47.105 52.347-84.87-9.058-37.765-47.181-60.996-85.151-51.888-37.969 9.107-61.406 47.105-52.347 84.869 9.058 37.765 47.182 60.996 85.151 51.889z"/>
      <path fill="#DC4618" d="M493.066 452.672c16.519-3.962 26.715-20.493 22.774-36.923-3.941-16.43-20.527-26.537-37.046-22.575-16.519 3.963-26.715 20.494-22.774 36.924 3.941 16.43 20.527 26.537 37.046 22.574z"/>
      <path fill="#BFCBBA" d="M326.002 751.858c16.439-3.943 26.586-20.394 22.664-36.744-3.922-16.35-20.427-26.408-36.866-22.465-16.439 3.943-26.585 20.394-22.664 36.744 3.922 16.35 20.428 26.408 36.866 22.465z"/>
      <path fill="#4F3496" d="M508.127 485.163l279.807-193.202-2.372-3.435-279.807 193.202 2.372 3.435z"/>
      <path fill="#7157B7" d="M1075.34 911.576l144.71 169.664 5.33-4.54-144.72-169.667-5.32 4.543z"/>
      <path fill="#28203D" d="M164.371 70.614l144.794 180.81 3.258-2.609-144.794-180.81-3.258 2.609zM262.117 945.803L78.171 1094.54l2.625 3.24 183.945-148.731-2.624-3.246z"/>
      <path fill="#DC4618" fill-rule="evenodd" d="M1204.59 764.609l-38.79-44.63 3.47-3.016 38.79 44.63 44.63-38.796 3.02 3.47-44.63 38.796 38.8 44.63-3.47 3.016-38.8-44.63-44.63 38.796-3.02-3.469 44.63-38.797zM169.961 680.514l-19.978-22.982 1.786-1.554 19.979 22.983 22.982-19.978 1.553 1.786-22.982 19.979 19.978 22.982-1.786 1.553-19.979-22.982-22.982 19.978-1.554-1.786 22.983-19.979z" clip-rule="evenodd"/>
    </g>
  </g>
  <defs>
    <clipPath id="clip0_2_2">
      <path fill="#fff" d="M0 0h1600v1200H0z"/>
    </clipPath>
  </defs>
</svg>
